<?xml version="1.0" encoding="utf-8"?>
<!-- Generator: Adobe Illustrator 26.2.1, SVG Export Plug-In . SVG Version: 6.00 Build 0)  -->
<svg version="1.1" id="Layer_1" xmlns="http://www.w3.org/2000/svg" xmlns:xlink="http://www.w3.org/1999/xlink" x="0px" y="0px"
	 viewBox="0 0 200 200" style="enable-background:new 0 0 200 200;" xml:space="preserve">
<style type="text/css">
	.st0{fill:#470137;}
	.st1{fill:#FF61F6;}
	.st2{fill-rule:evenodd;clip-rule:evenodd;fill:#FF61F6;}
</style>
<g id="Layer_00000072239020238036344260000008345655381845374342_">
	<path id="Layer" class="st0" d="M35.3,3.2h128.6c19.5,0,35.3,15.8,35.3,35.3v123.8c0,19.5-15.8,35.3-35.3,35.3H35.3
		C15.8,197.7,0,181.9,0,162.3V38.5C0,19,15.8,3.2,35.3,3.2z"/>
	<g id="Layer_00000132805317803058498160000017075990059014098571_">
		<path id="Layer_00000141420545418955350660000001975169940298801053_" class="st1" d="M104.7,54.3L79.8,95.4l26.6,43.6
			c0.2,0.3,0.2,0.7,0.2,1c-0.1,0.3-0.4,0.1-0.9,0.2h-19c-1.3,0-2.2-0.1-2.8-0.9c-1.8-3.5-3.6-6.9-5.3-10.4
			c-1.8-3.4-3.7-6.9-5.7-10.5c-2-3.6-4-7.2-6-10.8h-0.2c-1.7,3.6-3.7,7.2-5.6,10.7s-3.8,7.2-5.6,10.6c-1.9,3.5-3.8,7.1-5.7,10.5
			c-0.3,0.8-1,0.9-1.9,0.9H29.6c-0.3,0-0.6,0.2-0.6-0.2c-0.1-0.3,0-0.7,0.2-0.9L55,96.8L29.9,54.2c-0.2-0.3-0.3-0.7-0.2-0.8
			c0.2-0.2,0.5-0.3,0.8-0.3h18.8c0.4,0,0.8,0.1,1.2,0.2c0.3,0.2,0.6,0.4,0.8,0.8c1.6,3.6,3.4,7.2,5.3,10.7c2,3.6,3.9,7.1,6,10.6
			c2,3.5,3.8,7,5.6,10.6h0.2c1.7-3.7,3.6-7.2,5.4-10.7c1.8-3.5,3.7-7,5.6-10.5c1.9-3.5,3.7-7.1,5.6-10.5c0.1-0.3,0.2-0.7,0.5-0.8
			c0.3-0.2,0.7-0.2,1.1-0.2h17.5c0.4-0.1,0.8,0.2,0.9,0.6C105.1,53.8,104.9,54.1,104.7,54.3z"/>
		<path id="Layer_00000081627206775602669390000002335385085418754977_" class="st2" d="M125.2,138.2c-5.2-2.4-9.6-6.4-12.5-11.3
			c-3.1-5.1-4.6-11.4-4.6-18.9c-0.1-6.2,1.5-12.2,4.6-17.5c3.2-5.4,7.7-9.9,13.2-12.9c5.8-3.2,12.8-4.8,21-4.8c0.4,0,1,0,1.7,0.1
			s1.6,0.1,2.6,0.2V46.7c0-0.6,0.2-0.9,0.8-0.9h16.9c0.4-0.1,0.8,0.2,0.8,0.6v79.3c0,1.5,0.1,3.2,0.2,5c0.2,1.8,0.2,3.4,0.3,4.8
			c0,0.6-0.2,1.1-0.8,1.3c-4.3,1.8-8.9,3.2-13.5,4c-4.2,0.8-8.5,1.2-12.8,1.2C136.9,142.1,130.8,140.8,125.2,138.2L125.2,138.2z
			 M151.2,88.8c-0.7-0.2-1.5-0.3-2.2-0.4c-0.9-0.1-1.8-0.2-2.7-0.2c-3.2,0-6.5,0.7-9.4,2.2c-2.8,1.4-5.3,3.5-7.1,6.2
			c-1.8,2.7-2.7,6.2-2.7,10.6c-0.1,2.9,0.4,5.8,1.4,8.6c0.8,2.2,2.1,4.2,3.7,5.9c1.6,1.5,3.5,2.7,5.6,3.3c2.2,0.8,4.6,1.1,6.9,1.1
			c1.2,0,2.4-0.1,3.5-0.2c1.1,0.1,2-0.1,3-0.4C151.2,125.4,151.2,88.8,151.2,88.8z"/>
	</g>
</g>
</svg>
