<?xml version="1.0" encoding="utf-8"?>
<!-- Generator: Adobe Illustrator 26.2.1, SVG Export Plug-In . SVG Version: 6.00 Build 0)  -->
<svg version="1.1" id="Layer_1" xmlns="http://www.w3.org/2000/svg" xmlns:xlink="http://www.w3.org/1999/xlink" x="0px" y="0px"
	 viewBox="0 0 200 200" style="enable-background:new 0 0 200 200;" xml:space="preserve">
<style type="text/css">
	.st0{fill:#001E36;}
	.st1{fill-rule:evenodd;clip-rule:evenodd;fill:#31A8FF;}
	.st2{fill:#31A8FF;}
</style>
<g id="Layer_2_1_">
	<g id="Surfaces">
		<g id="Photo_Surface">
			<g id="Outline_no_shadow">
				<path id="Layer" class="st0" d="M37,5H163c19.1,0,34.6,15.4,34.6,34.5v121c0,19.1-15.4,34.5-34.6,34.5H37
					c-19.1,0-34.6-15.4-34.6-34.5v-121C2.4,20.4,17.9,5,37,5z"/>
			</g>
		</g>
	</g>
	<g id="Outlined_Mnemonics_Logos">
		<g id="Ps">
			<path id="Layer_00000001661008809050025610000015829536897367692703_" class="st1" d="M46.3,138.2V54.7c0-0.6,0.2-0.9,0.8-0.9
				c1.4,0,2.7,0,4.6-0.1c2-0.1,4-0.1,6.2-0.2c2.2-0.1,4.6-0.1,7.1-0.2c2.5-0.1,5-0.1,7.4-0.1c6.7,0,12.2,0.8,16.8,2.5
				c4.1,1.4,7.8,3.7,10.9,6.7c2.6,2.6,4.6,5.8,5.9,9.3c1.2,3.4,1.9,6.9,1.9,10.6c0,7-1.6,12.7-4.9,17.3c-3.3,4.5-7.8,8-13.1,9.9
				c-5.5,2-11.6,2.8-18.3,2.8c-2,0-3.3,0-4.1-0.1c-0.8-0.1-2-0.1-3.5-0.1v26.1c0.1,0.6-0.3,1.1-0.9,1.1H47.3
				C46.6,139.3,46.3,139,46.3,138.2z M64.1,96.7c1.1,0.1,2.2,0.2,3.2,0.2h4.3c3.2,0,6.3-0.5,9.3-1.5c2.6-0.7,4.9-2.3,6.7-4.3
				c1.7-2,2.5-4.8,2.5-8.4c0.1-2.5-0.6-5-1.9-7.2c-1.4-2.1-3.3-3.7-5.7-4.6c-3-1.2-6.3-1.7-9.6-1.6c-2.1,0-4,0-5.5,0.1
				c-1.6-0.1-2.8,0-3.3,0.1V96.7z"/>
			<path id="Layer_00000018940599381803530180000006329377588784141748_" class="st2" d="M158.6,91.8c-2.4-1.3-5-2.2-7.8-2.8
				c-3-0.7-6-1.1-9.1-1.1c-1.6-0.1-3.3,0.2-4.9,0.6c-1.1,0.2-2,0.8-2.5,1.6c-0.4,0.7-0.7,1.5-0.7,2.2c0,0.7,0.3,1.5,0.8,2.1
				c0.7,0.9,1.7,1.6,2.8,2.2c1.9,1,3.8,1.9,5.8,2.7c4.4,1.5,8.6,3.5,12.5,5.9c2.7,1.7,4.9,4,6.4,6.7c1.3,2.6,2,5.4,1.9,8.4
				c0.1,3.8-1.1,7.6-3.2,10.8c-2.3,3.2-5.4,5.8-9.1,7.2c-4,1.7-8.9,2.6-14.7,2.6c-3.7,0-7.4-0.3-11.1-1.1c-2.9-0.5-5.7-1.4-8.3-2.6
				c-0.6-0.3-1-0.9-0.9-1.5v-14.1c0-0.2,0.1-0.6,0.3-0.7c0.2-0.2,0.5-0.1,0.7,0.1c3.2,1.9,6.5,3.2,10.1,4c3.1,0.8,6.4,1.2,9.6,1.2
				c3.1,0,5.3-0.4,6.7-1.1c1.3-0.6,2.2-2,2.2-3.4c0-1.1-0.7-2.2-2-3.3c-1.3-1.1-4-2.3-8-3.8c-4.1-1.4-8-3.4-11.6-5.8
				c-2.5-1.8-4.7-4.2-6.2-6.9c-1.3-2.6-2-5.5-1.9-8.3c0-3.5,1-6.8,2.8-9.8c2-3.2,5-5.8,8.5-7.5c3.8-2,8.6-2.8,14.4-2.8
				c3.3,0,6.8,0.2,10.1,0.7c2.4,0.3,4.8,1,7,1.9c0.3,0.1,0.7,0.4,0.8,0.7c0.1,0.3,0.2,0.6,0.2,1V91c0,0.3-0.2,0.7-0.4,0.8
				C159.3,92,158.9,92,158.6,91.8z"/>
		</g>
	</g>
</g>
</svg>
