<?xml version="1.0" encoding="utf-8"?>
<!-- Generator: Adobe Illustrator 26.2.1, SVG Export Plug-In . SVG Version: 6.00 Build 0)  -->
<svg version="1.1" id="Layer_1" xmlns="http://www.w3.org/2000/svg" xmlns:xlink="http://www.w3.org/1999/xlink" x="0px" y="0px"
	 viewBox="0 0 200 200" style="enable-background:new 0 0 200 200;" xml:space="preserve">
<style type="text/css">
	.st0{fill:#00005B;}
	.st1{fill:#9999FF;}
</style>
<g transform="matrix(1.000000125 0 0 1.000000125 159.9999625 83)">
	<path class="st0" d="M-120.7-74.7H0.7C19.1-74.7,34-59.8,34-41.4V75.4c0,18.4-14.9,33.3-33.3,33.3h-121.4
		c-18.4,0-33.3-14.9-33.3-33.3V-41.4C-154-59.8-139.1-74.7-120.7-74.7z"/>
	<g>
		<path class="st1" d="M-109.4,53.9v-80.6c0-0.5,0.2-0.9,0.8-0.9c1.3,0,2.6,0,4.4-0.1c1.9-0.1,3.8-0.1,6-0.2
			c2.1-0.1,4.4-0.1,6.8-0.2C-89-28-86.6-28-84.3-28c6.4,0,11.8,0.8,16.1,2.4c3.9,1.3,7.5,3.5,10.5,6.4c2.5,2.5,4.5,5.6,5.7,8.9
			c1.2,3.3,1.8,6.7,1.8,10.2c0,6.7-1.6,12.3-4.7,16.7s-7.5,7.7-12.6,9.6c-5.3,2-11.2,2.7-17.6,2.7c-1.9,0-3.1,0-3.9-0.1
			c-0.8-0.1-1.9-0.1-3.4-0.1v25.1c0.1,0.5-0.3,1-0.9,1.1h-15.2C-109,54.9-109.4,54.6-109.4,53.9L-109.4,53.9z M-92.3-12.5v26.3
			c1.1,0.1,2.1,0.2,3.1,0.2h4.2c3.1,0,6.1-0.5,9-1.4c2.5-0.7,4.7-2.2,6.4-4.2c1.6-2,2.4-4.6,2.4-8.1c0.1-2.4-0.5-4.9-1.8-7
			c-1.3-2-3.2-3.6-5.5-4.5c-2.9-1.2-6-1.6-9.2-1.6c-2,0-3.8,0-5.3,0.1C-90.6-12.6-91.7-12.5-92.3-12.5L-92.3-12.5z"/>
		<path class="st1" d="M-39.2-7.9h13.7c0.8,0,1.4,0.5,1.6,1.3c0.2,0.6,0.4,1.3,0.5,2c0.2,0.8,0.3,1.6,0.4,2.4
			c0.1,0.9,0.2,1.8,0.2,2.8c2.4-2.7,5.2-5,8.4-6.7c3.6-2,7.8-3.1,11.9-3.1c0.5-0.1,1,0.3,1.1,0.9V7.2c0,0.6-0.4,0.9-1.3,0.9
			C-5.5,8-8.4,8.2-11.1,8.9c-2.3,0.5-4.5,1.2-6.6,2.1c-1.5,0.7-2.9,1.6-4,2.9v40c0,0.8-0.3,1.1-1,1.1h-15.4
			c-0.6,0.1-1.2-0.3-1.3-0.9V10.3c0-1.9,0-3.8-0.1-5.9s-0.1-4.1-0.2-6.1c0-1.8-0.2-3.5-0.3-5.3c-0.1-0.4,0.2-0.8,0.5-0.9
			C-39.4-8-39.2-8-39.2-7.9L-39.2-7.9z"/>
	</g>
</g>
</svg>
