<?xml version="1.0" encoding="utf-8"?>
<!-- Generator: Adobe Illustrator 26.2.1, SVG Export Plug-In . SVG Version: 6.00 Build 0)  -->
<svg version="1.1" id="Layer_1" xmlns="http://www.w3.org/2000/svg" xmlns:xlink="http://www.w3.org/1999/xlink" x="0px" y="0px"
	 viewBox="0 0 200 200" style="enable-background:new 0 0 200 200;" xml:space="preserve">
<style type="text/css">
	.st0{fill:#E44D26;}
	.st1{fill:#F16529;}
	.st2{fill:#EBEBEB;}
	.st3{fill:#FFFFFF;}
</style>
<path class="st0" d="M188.2,0l-16.1,180l-72.2,20l-72-20L11.8,0H188.2L188.2,0z"/>
<path class="st1" d="M100,184.7l58.4-16.2l13.7-153.8H100V184.7z"/>
<path class="st2" d="M68.8,58.9H100V36.8H44.6l0.5,5.9l5.4,60.8H100V81.5H70.8L68.8,58.9z M73.7,114.6H51.6l3.1,34.7l45.2,12.6
	l0.1,0v-23l-0.1,0l-24.6-6.6L73.7,114.6L73.7,114.6z"/>
<path class="st3" d="M99.9,103.6h27.2l-2.6,28.6l-24.6,6.6v23l45.3-12.5l0.3-3.7l5.2-58.1l0.5-5.9H99.9V103.6L99.9,103.6z
	 M99.9,58.8L99.9,58.8l53.3,0.1l0.4-5l1-11.2l0.5-5.9H99.9V58.8L99.9,58.8z"/>
</svg>
