<?xml version="1.0" encoding="utf-8"?>
<!-- Generator: Adobe Illustrator 26.2.1, SVG Export Plug-In . SVG Version: 6.00 Build 0)  -->
<svg version="1.1"
	 id="svg3680" inkscape:export-xdpi="131.34" inkscape:export-ydpi="131.34" inkscape:version="0.92.1 r15371" sodipodi:docname="jspsych-logo-no-text.svg" xmlns:cc="http://creativecommons.org/ns#" xmlns:dc="http://purl.org/dc/elements/1.1/" xmlns:inkscape="http://www.inkscape.org/namespaces/inkscape" xmlns:rdf="http://www.w3.org/1999/02/22-rdf-syntax-ns#" xmlns:sodipodi="http://sodipodi.sourceforge.net/DTD/sodipodi-0.dtd" xmlns:svg="http://www.w3.org/2000/svg"
	 xmlns="http://www.w3.org/2000/svg" xmlns:xlink="http://www.w3.org/1999/xlink" x="0px" y="0px" viewBox="0 0 200 200"
	 style="enable-background:new 0 0 200 200;" xml:space="preserve">
<style type="text/css">
	.st0{fill:#006838;}
	.st1{fill:#F78F1E;}
	.st2{fill:#EE4523;}
	.st3{fill:#13B24B;}
</style>
<sodipodi:namedview  bordercolor="#666666" borderopacity="1" fit-margin-bottom="77" fit-margin-left="20" fit-margin-right="20" fit-margin-top="77" gridtolerance="10" guidetolerance="10" id="namedview3682" inkscape:current-layer="g3694" inkscape:cx="76.999993" inkscape:cy="150.97991" inkscape:pageopacity="0" inkscape:pageshadow="2" inkscape:window-height="1013" inkscape:window-maximized="1" inkscape:window-width="1920" inkscape:window-x="-9" inkscape:window-y="-9" inkscape:zoom="2.2693726" objecttolerance="10" pagecolor="#ffffff" showgrid="false">
	</sodipodi:namedview>
<g id="g3688" transform="matrix(1.3333333,0,0,-1.3333333,-160.1236,397.56039)" inkscape:groupmode="layer" inkscape:label="jspsych-logo">
	<g id="g3694">
		<g id="g3702" transform="translate(270.4785,165.3169)">
			<path id="path3704" inkscape:connector-curvature="0" class="st0" d="M-58.7,52.6c0-5-4.1-9.1-9.1-9.1c-5,0-9.1,4.1-9.1,9.1
				c0,5,4.1,9.1,9.1,9.1C-62.8,61.7-58.7,57.6-58.7,52.6"/>
		</g>
		<g id="g3706" transform="translate(217.541,123.3291)">
			<path id="path3708" inkscape:connector-curvature="0" class="st0" d="M-40.1,67.4c0-5-4.1-9.1-9.1-9.1c-5,0-9.1,4.1-9.1,9.1
				c0,5,4.1,9.1,9.1,9.1C-44.1,76.4-40.1,72.4-40.1,67.4"/>
		</g>
		<g id="g3710" transform="translate(293.4795,138.3164)">
			<path id="path3712" inkscape:connector-curvature="0" class="st0" d="M-66.8,62.1c0-5-4.1-9.1-9.1-9.1c-5,0-9.1,4.1-9.1,9.1
				c0,5,4.1,9.1,9.1,9.1C-70.9,71.2-66.8,67.1-66.8,62.1"/>
		</g>
		<g id="g3714" transform="translate(262.4873,130.3223)">
			<path id="path3716" inkscape:connector-curvature="0" class="st0" d="M-55.9,64.9c0-3.8-3.1-6.9-6.9-6.9c-3.8,0-6.9,3.1-6.9,6.9
				c0,3.8,3.1,6.9,6.9,6.9C-59,71.8-55.9,68.7-55.9,64.9"/>
		</g>
		<g id="g3718" transform="translate(303.7871,162.2817)">
			<path id="path3720" inkscape:connector-curvature="0" class="st0" d="M-70.4,53.7c0-3.8-3.1-6.9-6.9-6.9c-3.8,0-6.9,3.1-6.9,6.9
				c0,3.8,3.1,6.9,6.9,6.9C-73.5,60.5-70.4,57.5-70.4,53.7"/>
		</g>
		<g id="g3722" transform="translate(212.1562,147.3887)">
			<path id="path3724" inkscape:connector-curvature="0" class="st0" d="M-38.2,58.9c0-2.3-1.8-4.1-4.1-4.1s-4.1,1.8-4.1,4.1
				c0,2.3,1.8,4.1,4.1,4.1S-38.2,61.2-38.2,58.9"/>
		</g>
		<g id="g3726" transform="translate(240.0127,132.0249)">
			<path id="path3728" inkscape:connector-curvature="0" class="st0" d="M-48,64.3c0-2.3-1.8-4.1-4.1-4.1s-4.1,1.8-4.1,4.1
				c0,2.3,1.8,4.1,4.1,4.1S-48,66.6-48,64.3"/>
		</g>
		<g id="g3730" transform="translate(306.4268,144.3188)">
			<path id="path3732" inkscape:connector-curvature="0" class="st0" d="M-71.4,60c0-2.3-1.8-4.1-4.1-4.1c-2.3,0-4.1,1.8-4.1,4.1
				c0,2.3,1.8,4.1,4.1,4.1C-73.2,64.1-71.4,62.3-71.4,60"/>
		</g>
		<g id="g3734" transform="translate(228.6377,112.7861)">
			<path id="path3736" inkscape:connector-curvature="0" class="st0" d="M-44,71.1c0-2.3-1.8-4.1-4.1-4.1s-4.1,1.8-4.1,4.1
				c0,2.3,1.8,4.1,4.1,4.1S-44,73.4-44,71.1"/>
		</g>
		<g id="g3738" transform="translate(228.2354,124.5215)">
			<path id="path3740" inkscape:connector-curvature="0" class="st0" d="M-43.8,67c0-1.4-1.1-2.5-2.5-2.5s-2.5,1.1-2.5,2.5
				c0,1.4,1.1,2.5,2.5,2.5S-43.8,68.3-43.8,67"/>
		</g>
		<g id="g3742" transform="translate(278.2354,156.7061)">
			<path id="path3744" inkscape:connector-curvature="0" class="st0" d="M-61.4,55.6c0-1.4-1.1-2.5-2.5-2.5s-2.5,1.1-2.5,2.5
				c0,1.4,1.1,2.5,2.5,2.5S-61.4,57-61.4,55.6"/>
		</g>
		<g id="g3746" transform="translate(239.9023,164.7754)">
			<path id="path3748" inkscape:connector-curvature="0" class="st0" d="M-47.9,52.8c0-1.4-1.1-2.5-2.5-2.5c-1.4,0-2.5,1.1-2.5,2.5
				c0,1.4,1.1,2.5,2.5,2.5C-49,55.3-47.9,54.1-47.9,52.8"/>
		</g>
		<g id="g3750" transform="translate(238.5674,111.8584)">
			<path id="path3752" inkscape:connector-curvature="0" class="st0" d="M-47.5,71.4c0-1.4-1.1-2.5-2.5-2.5c-1.4,0-2.5,1.1-2.5,2.5
				c0,1.4,1.1,2.5,2.5,2.5C-48.6,73.9-47.5,72.8-47.5,71.4"/>
		</g>
		<g id="g3754" transform="translate(319.5498,159.0034)">
			<path id="path3756" inkscape:connector-curvature="0" class="st0" d="M-76,54.8c0-1.4-1.1-2.5-2.5-2.5c-1.4,0-2.5,1.1-2.5,2.5
				c0,1.4,1.1,2.5,2.5,2.5C-77.1,57.3-76,56.2-76,54.8"/>
		</g>
		<g id="g3758" transform="translate(265.0596,144.313)">
			<path id="path3760" inkscape:connector-curvature="0" class="st0" d="M-56.8,60c0-1.4-1.1-2.5-2.5-2.5c-1.4,0-2.5,1.1-2.5,2.5
				c0,1.4,1.1,2.5,2.5,2.5C-57.9,62.5-56.8,61.4-56.8,60"/>
		</g>
		<g id="g3762" transform="translate(220.2705,138.8965)">
			<path id="path3764" inkscape:connector-curvature="0" class="st0" d="M-41,61.9c0-1.4-1.1-2.5-2.5-2.5c-1.4,0-2.5,1.1-2.5,2.5
				c0,1.4,1.1,2.5,2.5,2.5C-42.1,64.4-41,63.3-41,61.9"/>
		</g>
		<g id="g3766" transform="translate(281.3672,167.6523)">
			<path id="path3768" inkscape:connector-curvature="0" class="st0" d="M-62.5,51.8c0-1.4-1.1-2.5-2.5-2.5c-1.4,0-2.5,1.1-2.5,2.5
				c0,1.4,1.1,2.5,2.5,2.5C-63.7,54.2-62.5,53.1-62.5,51.8"/>
		</g>
		<g id="g3774" transform="translate(252.2354,146.7056)">
			<path id="path3776" inkscape:connector-curvature="0" class="st0" d="M-52.3,59.2c0-1.4-1.1-2.5-2.5-2.5s-2.5,1.1-2.5,2.5
				c0,1.4,1.1,2.5,2.5,2.5S-52.3,60.5-52.3,59.2"/>
		</g>
		<g id="g3778" transform="translate(311.2354,153.7056)">
			<path id="path3780" inkscape:connector-curvature="0" class="st0" d="M-73.1,56.7c0-1.4-1.1-2.5-2.5-2.5c-1.4,0-2.5,1.1-2.5,2.5
				c0,1.4,1.1,2.5,2.5,2.5C-74.2,59.2-73.1,58-73.1,56.7"/>
		</g>
		<g id="g3782" transform="translate(237.958,151.3179)">
			<path id="path3784" inkscape:connector-curvature="0" class="st0" d="M-47.3,57.5c0-3.8-3.1-6.9-6.9-6.9c-3.8,0-6.9,3.1-6.9,6.9
				c0,3.8,3.1,6.9,6.9,6.9C-50.3,64.4-47.3,61.3-47.3,57.5"/>
		</g>
		<g id="g3786" transform="translate(180.4268,145.812)">
			<path id="path3788" inkscape:connector-curvature="0" class="st1" d="M-27,59.5c0-2.3-1.8-4.1-4.1-4.1s-4.1,1.8-4.1,4.1
				c0,2.3,1.8,4.1,4.1,4.1S-27,61.7-27,59.5"/>
		</g>
		<g id="g3790" transform="translate(219.0283,174.7998)">
			<path id="path3792" inkscape:connector-curvature="0" class="st1" d="M-40.6,49.3c0-5-4.1-9.1-9.1-9.1s-9.1,4.1-9.1,9.1
				c0,5,4.1,9.1,9.1,9.1S-40.6,54.3-40.6,49.3"/>
		</g>
		<g id="g3794" transform="translate(163.0937,180.9414)">
			<path id="path3796" inkscape:connector-curvature="0" class="st1" d="M-20.9,47.1c0-5-4.1-9.1-9.1-9.1c-5,0-9.1,4.1-9.1,9.1
				c0,5,4.1,9.1,9.1,9.1C-24.9,56.2-20.9,52.1-20.9,47.1"/>
		</g>
		<g id="g3798" transform="translate(219.7939,213.999)">
			<path id="path3800" inkscape:connector-curvature="0" class="st1" d="M-40.9,35.4c0-5-4.1-9.1-9.1-9.1c-5,0-9.1,4.1-9.1,9.1
				c0,5,4.1,9.1,9.1,9.1C-44.9,44.5-40.9,40.5-40.9,35.4"/>
		</g>
		<g id="g3802" transform="translate(247.3955,222.7163)">
			<path id="path3804" inkscape:connector-curvature="0" class="st1" d="M-50.6,32.4c0-3.8-3.1-6.9-6.9-6.9c-3.8,0-6.9,3.1-6.9,6.9
				c0,3.8,3.1,6.9,6.9,6.9C-53.7,39.2-50.6,36.2-50.6,32.4"/>
		</g>
		<g id="g3806" transform="translate(181.041,164.7744)">
			<path id="path3808" inkscape:connector-curvature="0" class="st1" d="M-27.2,52.8c0-3.8-3.1-6.9-6.9-6.9c-3.8,0-6.9,3.1-6.9,6.9
				c0,3.8,3.1,6.9,6.9,6.9C-30.3,59.7-27.2,56.6-27.2,52.8"/>
		</g>
		<g id="g3810" transform="translate(176.708,207.5557)">
			<path id="path3812" inkscape:connector-curvature="0" class="st1" d="M-25.7,37.7c0-3.8-3.1-6.9-6.9-6.9c-3.8,0-6.9,3.1-6.9,6.9
				c0,3.8,3.1,6.9,6.9,6.9C-28.8,44.6-25.7,41.5-25.7,37.7"/>
		</g>
		<g id="g3814" transform="translate(157.4795,150.1606)">
			<path id="path3816" inkscape:connector-curvature="0" class="st1" d="M-18.9,57.9c0-3.8-3.1-6.9-6.9-6.9c-3.8,0-6.9,3.1-6.9,6.9
				c0,3.8,3.1,6.9,6.9,6.9C-22,64.8-18.9,61.7-18.9,57.9"/>
		</g>
		<g id="g3818" transform="translate(182.041,185.3882)">
			<path id="path3820" inkscape:connector-curvature="0" class="st1" d="M-27.6,45.5c0-2.3-1.8-4.1-4.1-4.1s-4.1,1.8-4.1,4.1
				c0,2.3,1.8,4.1,4.1,4.1S-27.6,47.8-27.6,45.5"/>
		</g>
		<g id="g3822" transform="translate(194.584,157.9946)">
			<path id="path3824" inkscape:connector-curvature="0" class="st1" d="M-32,55.2c0-2.3-1.8-4.1-4.1-4.1s-4.1,1.8-4.1,4.1
				c0,2.3,1.8,4.1,4.1,4.1S-32,57.4-32,55.2"/>
		</g>
		<g id="g3826" transform="translate(191.041,222.7173)">
			<path id="path3828" inkscape:connector-curvature="0" class="st1" d="M-30.7,32.4c0-2.3-1.8-4.1-4.1-4.1s-4.1,1.8-4.1,4.1
				c0,2.3,1.8,4.1,4.1,4.1S-30.7,34.6-30.7,32.4"/>
		</g>
		<g id="g3830" transform="translate(204.1084,193.9229)">
			<path id="path3832" inkscape:connector-curvature="0" class="st1" d="M-35.3,42.5c0-1.4-1.1-2.5-2.5-2.5s-2.5,1.1-2.5,2.5
				c0,1.4,1.1,2.5,2.5,2.5S-35.3,43.9-35.3,42.5"/>
		</g>
		<g id="g3834" transform="translate(223.834,235.9478)">
			<path id="path3836" inkscape:connector-curvature="0" class="st1" d="M-42.3,27.7c0-1.4-1.1-2.5-2.5-2.5s-2.5,1.1-2.5,2.5
				c0,1.4,1.1,2.5,2.5,2.5S-42.3,29.1-42.3,27.7"/>
		</g>
		<g id="g3838" transform="translate(255.8447,236.6113)">
			<path id="path3840" inkscape:connector-curvature="0" class="st1" d="M-53.6,27.5c0-1.4-1.1-2.5-2.5-2.5s-2.5,1.1-2.5,2.5
				c0,1.4,1.1,2.5,2.5,2.5S-53.6,28.8-53.6,27.5"/>
		</g>
		<g id="g3842" transform="translate(155.9014,131.3208)">
			<path id="path3844" inkscape:connector-curvature="0" class="st1" d="M-18.3,64.6c0-1.4-1.1-2.5-2.5-2.5c-1.4,0-2.5,1.1-2.5,2.5
				c0,1.4,1.1,2.5,2.5,2.5C-19.4,67-18.3,65.9-18.3,64.6"/>
		</g>
		<g id="g3846" transform="translate(186.377,128.5161)">
			<path id="path3848" inkscape:connector-curvature="0" class="st1" d="M-29.1,65.6c0-1.4-1.1-2.5-2.5-2.5c-1.4,0-2.5,1.1-2.5,2.5
				c0,1.4,1.1,2.5,2.5,2.5C-30.2,68-29.1,66.9-29.1,65.6"/>
		</g>
		<g id="g3850" transform="translate(233.0928,205.7705)">
			<path id="path3852" inkscape:connector-curvature="0" class="st1" d="M-45.5,38.3c0-2.3-1.8-4.1-4.1-4.1c-2.3,0-4.1,1.8-4.1,4.1
				c0,2.3,1.8,4.1,4.1,4.1C-47.4,42.4-45.5,40.6-45.5,38.3"/>
		</g>
		<g id="g3854" transform="translate(196.6279,145.7632)">
			<path id="path3856" inkscape:connector-curvature="0" class="st1" d="M-32.7,59.5c0-1.4-1.1-2.5-2.5-2.5c-1.4,0-2.5,1.1-2.5,2.5
				c0,1.4,1.1,2.5,2.5,2.5C-33.8,62-32.7,60.8-32.7,59.5"/>
		</g>
		<g id="g3858" transform="translate(192.041,203.7705)">
			<path id="path3860" inkscape:connector-curvature="0" class="st1" d="M-31.1,39c0-2.3-1.8-4.1-4.1-4.1c-2.3,0-4.1,1.8-4.1,4.1
				c0,2.3,1.8,4.1,4.1,4.1S-31.1,41.3-31.1,39"/>
		</g>
		<g id="g3862" transform="translate(172.4272,131.3208)">
			<path id="path3864" inkscape:connector-curvature="0" class="st1" d="M-24.2,64.6c0-2.3-1.8-4.1-4.1-4.1s-4.1,1.8-4.1,4.1
				c0,2.3,1.8,4.1,4.1,4.1S-24.2,66.8-24.2,64.6"/>
		</g>
		<g id="g3866" transform="translate(327.8945,176.7759)">
			<path id="path3868" inkscape:connector-curvature="0" class="st2" d="M-78.9,48.6c0-2.3-1.8-4.1-4.1-4.1c-2.3,0-4.1,1.8-4.1,4.1
				c0,2.3,1.8,4.1,4.1,4.1C-80.8,52.7-78.9,50.8-78.9,48.6"/>
		</g>
		<g id="g3870" transform="translate(328.3701,134.2197)">
			<path id="path3872" inkscape:connector-curvature="0" class="st2" d="M-79.1,63.6c0-1.4-1.1-2.5-2.5-2.5c-1.4,0-2.5,1.1-2.5,2.5
				c0,1.4,1.1,2.5,2.5,2.5C-80.2,66-79.1,64.9-79.1,63.6"/>
		</g>
		<g id="g3874" transform="translate(313.3701,134.3184)">
			<path id="path3876" inkscape:connector-curvature="0" class="st2" d="M-73.8,63.5c0-1.4-1.1-2.5-2.5-2.5c-1.4,0-2.5,1.1-2.5,2.5
				c0,1.4,1.1,2.5,2.5,2.5C-74.9,66-73.8,64.9-73.8,63.5"/>
		</g>
		<g id="g3878" transform="translate(354.3691,155.9951)">
			<path id="path3880" inkscape:connector-curvature="0" class="st2" d="M-88.3,55.9c0-1.4-1.1-2.5-2.5-2.5c-1.4,0-2.5,1.1-2.5,2.5
				c0,1.4,1.1,2.5,2.5,2.5C-89.4,58.3-88.3,57.2-88.3,55.9"/>
		</g>
		<g id="g3882" transform="translate(341.9834,185.561)">
			<path id="path3884" inkscape:connector-curvature="0" class="st2" d="M-83.9,45.5c0-1.4-1.1-2.5-2.5-2.5c-1.4,0-2.5,1.1-2.5,2.5
				c0,1.4,1.1,2.5,2.5,2.5C-85,47.9-83.9,46.8-83.9,45.5"/>
		</g>
		<g id="g3886" transform="translate(349.3154,141.6274)">
			<path id="path3888" inkscape:connector-curvature="0" class="st2" d="M-86.5,60.9c0-2.3-1.8-4.1-4.1-4.1c-2.3,0-4.1,1.8-4.1,4.1
				c0,2.3,1.8,4.1,4.1,4.1C-88.3,65-86.5,63.2-86.5,60.9"/>
		</g>
		<g id="g3890" transform="translate(350.1221,169.8418)">
			<path id="path3892" inkscape:connector-curvature="0" class="st2" d="M-86.8,51c0-3.8-3.1-6.9-6.9-6.9s-6.9,3.1-6.9,6.9
				c0,3.8,3.1,6.9,6.9,6.9S-86.8,54.8-86.8,51"/>
		</g>
		<g id="g3894" transform="translate(334.8945,148.9609)">
			<path id="path3896" inkscape:connector-curvature="0" class="st2" d="M-81.4,58.4c0-2.3-1.8-4.1-4.1-4.1c-2.3,0-4.1,1.8-4.1,4.1
				c0,2.3,1.8,4.1,4.1,4.1C-83.2,62.5-81.4,60.6-81.4,58.4"/>
		</g>
		<g id="g3898" transform="translate(328.3691,162.8115)">
			<path id="path3900" inkscape:connector-curvature="0" class="st2" d="M-79.1,53.5c0-1.4-1.1-2.5-2.5-2.5c-1.4,0-2.5,1.1-2.5,2.5
				c0,1.4,1.1,2.5,2.5,2.5C-80.2,55.9-79.1,54.8-79.1,53.5"/>
		</g>
		<g id="g3902" transform="translate(319.5498,144.3193)">
			<path id="path3904" inkscape:connector-curvature="0" class="st2" d="M-76,60c0-1.4-1.1-2.5-2.5-2.5c-1.4,0-2.5,1.1-2.5,2.5
				c0,1.4,1.1,2.5,2.5,2.5C-77.1,62.5-76,61.4-76,60"/>
		</g>
		<g id="g3906" transform="translate(270.0937,203.9995)">
			<path id="path3908" inkscape:connector-curvature="0" class="st3" d="M-58.6,39c0-5-4.1-9.1-9.1-9.1c-5,0-9.1,4.1-9.1,9.1
				c0,5,4.1,9.1,9.1,9.1C-62.6,48-58.6,44-58.6,39"/>
		</g>
		<g id="g3910" transform="translate(306.5967,189)">
			<path id="path3912" inkscape:connector-curvature="0" class="st3" d="M-71.4,44.3c0-5-4.1-9.1-9.1-9.1s-9.1,4.1-9.1,9.1
				c0,5,4.1,9.1,9.1,9.1C-75.5,53.3-71.4,49.3-71.4,44.3"/>
		</g>
		<g id="g3914" transform="translate(246.707,184.3882)">
			<path id="path3916" inkscape:connector-curvature="0" class="st3" d="M-50.3,45.9c0-3.8-3.1-6.9-6.9-6.9s-6.9,3.1-6.9,6.9
				c0,3.8,3.1,6.9,6.9,6.9C-53.4,52.8-50.3,49.7-50.3,45.9"/>
		</g>
		<g id="g3918" transform="translate(293.1729,226.0005)">
			<path id="path3920" inkscape:connector-curvature="0" class="st3" d="M-66.7,31.2c0-3.8-3.1-6.9-6.9-6.9s-6.9,3.1-6.9,6.9
				c0,3.8,3.1,6.9,6.9,6.9C-69.8,38.1-66.7,35-66.7,31.2"/>
		</g>
		<g id="g3922" transform="translate(332.7881,195.3877)">
			<path id="path3924" inkscape:connector-curvature="0" class="st3" d="M-80.7,42c0-3.8-3.1-6.9-6.9-6.9s-6.9,3.1-6.9,6.9
				c0,3.8,3.1,6.9,6.9,6.9S-80.7,45.8-80.7,42"/>
		</g>
		<g id="g3926" transform="translate(274.4238,183.7744)">
			<path id="path3928" inkscape:connector-curvature="0" class="st3" d="M-60.1,46.1c0-2.3-1.8-4.1-4.1-4.1c-2.3,0-4.1,1.8-4.1,4.1
				c0,2.3,1.8,4.1,4.1,4.1C-61.9,50.2-60.1,48.4-60.1,46.1"/>
		</g>
		<g id="g3930" transform="translate(284.0801,207.1611)">
			<path id="path3932" inkscape:connector-curvature="0" class="st3" d="M-63.5,37.9c0-2.3-1.8-4.1-4.1-4.1c-2.3,0-4.1,1.8-4.1,4.1
				c0,2.3,1.8,4.1,4.1,4.1C-65.3,42-63.5,40.1-63.5,37.9"/>
		</g>
		<g id="g3934" transform="translate(312.9336,207.5562)">
			<path id="path3936" inkscape:connector-curvature="0" class="st3" d="M-73.7,37.7c0-2.3-1.8-4.1-4.1-4.1s-4.1,1.8-4.1,4.1
				c0,2.3,1.8,4.1,4.1,4.1S-73.7,40-73.7,37.7"/>
		</g>
		<g id="g3938" transform="translate(312.3691,172.9443)">
			<path id="path3940" inkscape:connector-curvature="0" class="st3" d="M-73.5,49.9c0-1.4-1.1-2.5-2.5-2.5c-1.4,0-2.5,1.1-2.5,2.5
				c0,1.4,1.1,2.5,2.5,2.5C-74.6,52.4-73.5,51.3-73.5,49.9"/>
		</g>
		<g id="g3942" transform="translate(306.7861,223.8062)">
			<path id="path3944" inkscape:connector-curvature="0" class="st3" d="M-71.5,32c0-1.4-1.1-2.5-2.5-2.5c-1.4,0-2.5,1.1-2.5,2.5
				c0,1.4,1.1,2.5,2.5,2.5C-72.6,34.5-71.5,33.4-71.5,32"/>
		</g>
		<g id="g3946" transform="translate(271.0937,234.9478)">
			<path id="path3948" inkscape:connector-curvature="0" class="st3" d="M-58.9,28.1c0-1.4-1.1-2.5-2.5-2.5s-2.5,1.1-2.5,2.5
				c0,1.4,1.1,2.5,2.5,2.5S-58.9,29.4-58.9,28.1"/>
		</g>
		<g id="g3950" transform="translate(268.8672,222.7178)">
			<path id="path3952" inkscape:connector-curvature="0" class="st3" d="M-58.1,32.4c0-1.4-1.1-2.5-2.5-2.5s-2.5,1.1-2.5,2.5
				c0,1.4,1.1,2.5,2.5,2.5S-58.1,33.7-58.1,32.4"/>
		</g>
	</g>
</g>
</svg>
