<?xml version="1.0" encoding="utf-8"?>
<!-- Generator: Adobe Illustrator 26.2.1, SVG Export Plug-In . SVG Version: 6.00 Build 0)  -->
<svg version="1.1" id="Layer_1" xmlns="http://www.w3.org/2000/svg" xmlns:xlink="http://www.w3.org/1999/xlink" x="0px" y="0px"
	 viewBox="0 0 200 200" style="enable-background:new 0 0 200 200;" xml:space="preserve">
<style type="text/css">
	.st0{fill:url(#SVGID_1_);}
	.st1{fill:url(#SVGID_00000143576382410619967920000016259122100515826362_);}
</style>
<g>
	
		<linearGradient id="SVGID_1_" gradientUnits="userSpaceOnUse" x1="-645.4764" y1="494.8468" x2="-644.9534" y2="494.3278" gradientTransform="matrix(189.3834 0 0 -189.8058 122260.9844 93943.1328)">
		<stop  offset="0" style="stop-color:#387EB8"/>
		<stop  offset="1" style="stop-color:#366994"/>
	</linearGradient>
	<path class="st0" d="M99.1,0C48.3,0,51.4,22,51.4,22l0.1,22.8H100v6.9H32.2c0,0-32.5-3.7-32.5,47.6c0,51.3,28.4,49.5,28.4,49.5h17
		V125c0,0-0.9-28.4,28-28.4h48.1c0,0,27,0.4,27-26.1V26.5C148.2,26.5,152.3,0,99.1,0L99.1,0L99.1,0z M72.4,15.3
		c4.8,0,8.7,3.9,8.7,8.7s-3.9,8.7-8.7,8.7c-4.8,0-8.7-3.9-8.7-8.7C63.6,19.2,67.5,15.3,72.4,15.3L72.4,15.3L72.4,15.3z"/>
	
		<linearGradient id="SVGID_00000057862297018736603820000013768116898341260684_" gradientUnits="userSpaceOnUse" x1="-645.5032" y1="494.8527" x2="-644.9414" y2="494.3204" gradientTransform="matrix(189.3834 0 0 -189.8058 122326.9844 94007.3984)">
		<stop  offset="0" style="stop-color:#FFE052"/>
		<stop  offset="1" style="stop-color:#FFC331"/>
	</linearGradient>
	<path style="fill:url(#SVGID_00000057862297018736603820000013768116898341260684_);" d="M100.6,199.2c50.9,0,47.7-22.1,47.7-22.1
		l-0.1-22.8H99.7v-6.9h67.8c0,0,32.5,3.7,32.5-47.6c0-51.3-28.4-49.5-28.4-49.5h-17v23.8c0,0,0.9,28.4-28,28.4H78.6
		c0,0-27-0.4-27,26.1v43.9C51.5,172.7,47.4,199.2,100.6,199.2L100.6,199.2L100.6,199.2z M127.3,183.9c-4.8,0-8.7-3.9-8.7-8.7
		c0-4.8,3.9-8.7,8.7-8.7c4.8,0,8.7,3.9,8.7,8.7C136,180,132.1,183.9,127.3,183.9L127.3,183.9L127.3,183.9z"/>
</g>
</svg>
