<?xml version="1.0" encoding="utf-8"?>
<!-- Generator: Adobe Illustrator 26.2.1, SVG Export Plug-In . SVG Version: 6.00 Build 0)  -->
<svg version="1.1" id="Layer_1" xmlns="http://www.w3.org/2000/svg" xmlns:xlink="http://www.w3.org/1999/xlink" x="0px" y="0px"
	 viewBox="0 0 200 200" style="enable-background:new 0 0 200 200;" xml:space="preserve">
<style type="text/css">
	.st0{fill:#74AADB;}
	.st1{fill:#FFFFFF;}
</style>
<circle class="st0" cx="100" cy="100" r="100"/>
<path class="st1" d="M125.3,54c3.7,1.7,6.7,3.7,9,6.7c2,2.3,3.7,5,5,8c1.3,3,1.7,6.3,1.7,10.3c0,4.7-1,9-3.3,13.7
	c-2.3,4.7-6,7.7-11.3,9.3c4.3,1.7,7.7,4.3,9.3,7.7c2,3.3,2.7,8.3,2.7,15v6.3c0,4.3,0.3,7.3,0.7,9c0.7,2.3,1.7,4.3,3.7,5.7v2.3h-22.3
	c-0.7-2-1-4-1.3-5.3c-0.7-2.7-0.7-5.3-1-8.3v-9c0-6-1-10.3-3.3-12.3c-2-2-6-3-11.7-3H83.3v38H63.7V51.3H110
	C116.7,51.7,122,52.7,125.3,54 M83.7,68.3v26h21.7c4.3,0,7.7-0.7,9.7-1.7c3.7-2,5.7-5.3,5.7-11c0-6-2-9.7-5.7-11.7
	c-2-1-5.3-1.7-9.3-1.7H83.7"/>
</svg>
